# xmcd
#
# Track frame offsets:
#	150
#	10607
#	21539
#	33322
#	45174
#	54794
#	66922
#	75459
#	85612
#	98659
#	111294
#	120626
#	131170
#
# Disc length: 1911 seconds
#
# Revision: 0
# Processed by: cddbd v1.5.2PL0 Copyright (c) Steve Scherf et al.
# Submitted via: EasyCDDAExtractor 15.3.0.1
#
DISCID=9507750d
DTITLE=George Jones - Early Years CD 1
DYEAR=2008
DGENRE=Country
TTITLE0=No Money In This Deal
TTITLE1=You're In My Heart
TTITLE2=Play It Cool Man
TTITLE3=Let Him Know
TTITLE4=You All Goodnight
TTITLE5=Heartbroken Me
TTITLE6=Hold Everything
TTITLE7=Why Baby Why
TTITLE8=Seasons Of My Heart
TTITLE9=What Am I Worth
TTITLE10=Still Hurtin'
TTITLE11=I'm Ragged But Right
TTITLE12=Your Heart
EXTD=
EXTT0=
EXTT1=
EXTT2=
EXTT3=
EXTT4=
EXTT5=
EXTT6=
EXTT7=
EXTT8=
EXTT9=
EXTT10=
EXTT11=
EXTT12=
PLAYORDER=
